<mxfile host="app.diagrams.net" modified="2024-06-27T15:39:17.106Z" agent="Mozilla/5.0 (Windows NT 10.0; Win64; x64) AppleWebKit/537.36 (KHTML, like Gecko) Chrome/126.0.0.0 Safari/537.36" etag="qdfkrZ_MEnoWnUSrlhJo" version="24.6.3" type="device">
  <diagram id="C5RBs43oDa-KdzZeNtuy" name="Page-1">
    <mxGraphModel dx="794" dy="420" grid="1" gridSize="10" guides="1" tooltips="1" connect="1" arrows="1" fold="1" page="1" pageScale="1" pageWidth="827" pageHeight="1169" math="0" shadow="0">
      <root>
        <mxCell id="WIyWlLk6GJQsqaUBKTNV-0" />
        <mxCell id="WIyWlLk6GJQsqaUBKTNV-1" parent="WIyWlLk6GJQsqaUBKTNV-0" />
        <mxCell id="QYPUdVxU-jVefrV6eOQ3-6" value="" style="edgeStyle=orthogonalEdgeStyle;rounded=0;orthogonalLoop=1;jettySize=auto;html=1;" edge="1" parent="WIyWlLk6GJQsqaUBKTNV-1" source="QYPUdVxU-jVefrV6eOQ3-0" target="QYPUdVxU-jVefrV6eOQ3-1">
          <mxGeometry relative="1" as="geometry" />
        </mxCell>
        <mxCell id="QYPUdVxU-jVefrV6eOQ3-0" value="Exacting attributes" style="rounded=1;whiteSpace=wrap;html=1;" vertex="1" parent="WIyWlLk6GJQsqaUBKTNV-1">
          <mxGeometry x="400" y="100" width="120" height="60" as="geometry" />
        </mxCell>
        <mxCell id="QYPUdVxU-jVefrV6eOQ3-1" value="Save data to Json" style="rounded=1;whiteSpace=wrap;html=1;" vertex="1" parent="WIyWlLk6GJQsqaUBKTNV-1">
          <mxGeometry x="560" y="100" width="120" height="60" as="geometry" />
        </mxCell>
        <mxCell id="QYPUdVxU-jVefrV6eOQ3-5" value="" style="edgeStyle=orthogonalEdgeStyle;rounded=0;orthogonalLoop=1;jettySize=auto;html=1;" edge="1" parent="WIyWlLk6GJQsqaUBKTNV-1" source="QYPUdVxU-jVefrV6eOQ3-2" target="QYPUdVxU-jVefrV6eOQ3-0">
          <mxGeometry relative="1" as="geometry" />
        </mxCell>
        <mxCell id="QYPUdVxU-jVefrV6eOQ3-2" value="access each URL" style="rounded=1;whiteSpace=wrap;html=1;" vertex="1" parent="WIyWlLk6GJQsqaUBKTNV-1">
          <mxGeometry x="240" y="100" width="120" height="60" as="geometry" />
        </mxCell>
        <mxCell id="QYPUdVxU-jVefrV6eOQ3-4" value="" style="edgeStyle=orthogonalEdgeStyle;rounded=0;orthogonalLoop=1;jettySize=auto;html=1;" edge="1" parent="WIyWlLk6GJQsqaUBKTNV-1" source="QYPUdVxU-jVefrV6eOQ3-3" target="QYPUdVxU-jVefrV6eOQ3-2">
          <mxGeometry relative="1" as="geometry" />
        </mxCell>
        <mxCell id="QYPUdVxU-jVefrV6eOQ3-3" value="Read file txt" style="rounded=1;whiteSpace=wrap;html=1;" vertex="1" parent="WIyWlLk6GJQsqaUBKTNV-1">
          <mxGeometry x="80" y="100" width="120" height="60" as="geometry" />
        </mxCell>
      </root>
    </mxGraphModel>
  </diagram>
</mxfile>
